<svg width="23" height="23" viewBox="0 0 23 23" fill="none" xmlns="http://www.w3.org/2000/svg">
<path d="M19.652 9.70464V6.79325H17.711V9.70464H14.7996V11.6456H17.711V14.557H19.652V11.6456H22.5634V9.70464H19.652ZM12.1794 13.0042L11.1118 12.2278C10.7236 11.9367 10.3355 11.5485 10.3355 10.8692C10.3355 10.1899 10.8207 9.6076 11.306 9.31646C12.5676 8.34599 13.8292 7.27848 13.8292 5.14346C13.8292 3.10549 12.5676 1.94093 11.8882 1.35865H13.538L14.7026 0H8.68571C4.41567 0 2.28065 2.7173 2.28065 5.62869C2.28065 7.86076 4.02749 10.2869 7.13297 10.2869H7.90934C7.8123 10.5781 7.52116 11.0633 7.52116 11.5485C7.52116 12.519 7.90934 12.9072 8.39457 13.4895C7.03592 13.5865 4.51272 13.8776 2.66884 15.0422C0.922 16.1097 0.436768 17.5654 0.436768 18.6329C0.436768 20.865 2.47474 23 6.84183 23C12.0823 23 14.6056 20.0886 14.6056 17.2743C14.6055 15.2363 13.538 14.1688 12.1794 13.0042ZM4.80386 4.173C4.80386 2.03797 6.06546 1.06751 7.42411 1.06751C9.94732 1.06751 11.306 4.46414 11.306 6.40506C11.306 8.92827 9.26799 9.4135 8.49162 9.4135C6.06546 9.4135 4.80386 6.40506 4.80386 4.173ZM8.29749 21.6414C5.09496 21.6414 3.05698 20.1857 3.05698 18.0506C3.05698 15.9156 4.99791 15.2363 5.58019 14.9451C6.84179 14.5569 8.49158 14.4599 8.78272 14.4599C9.07386 14.4599 9.26795 14.4599 9.46205 14.4599C11.7912 16.1097 12.7616 16.789 12.7616 18.3417C12.7616 20.1857 10.9178 21.6414 8.29749 21.6414Z" fill="#CCCCCC"/>
</svg>
