<svg width="23" height="23" viewBox="0 0 23 23" fill="none" xmlns="http://www.w3.org/2000/svg">
<path d="M22.1318 0.868631C21.5528 0.289456 20.8589 0 20.0505 0H2.95001C2.14138 0 1.44771 0.289561 0.86853 0.868631C0.289458 1.44754 0 2.14132 0 2.94979V20.0501C0 20.8584 0.289405 21.5524 0.86853 22.1313C1.44771 22.7103 2.14154 23 2.95001 23H20.0503C20.8585 23 21.5526 22.7103 22.1316 22.1313C22.7108 21.5524 23 20.8584 23 20.0501V2.94979C22.9999 2.14116 22.7108 1.44775 22.1318 0.868631ZM8.25843 8.28797C9.16179 7.41462 10.2474 6.97774 11.5153 6.97774C12.7929 6.97774 13.8834 7.41462 14.787 8.28797C15.6906 9.16148 16.1421 10.2172 16.1421 11.4551C16.1421 12.6927 15.6906 13.7485 14.787 14.6218C13.8834 15.4955 12.7932 15.9323 11.5153 15.9323C10.2475 15.9323 9.16194 15.4951 8.25843 14.6218C7.35487 13.7484 6.90314 12.6927 6.90314 11.4551C6.90314 10.2172 7.35487 9.16153 8.25843 8.28797ZM20.3949 19.4364C20.3949 19.6957 20.3048 19.9127 20.1253 20.0876C19.9452 20.2622 19.7309 20.3496 19.4811 20.3496H3.47417C3.21466 20.3496 2.99737 20.2622 2.82283 20.0876C2.64802 19.9131 2.5607 19.6957 2.5607 19.4364V9.7329H4.67197C4.47241 10.3619 4.3726 11.0159 4.3726 11.6945C4.3726 13.6116 5.0713 15.246 6.46887 16.5989C7.8666 17.9513 9.54864 18.6278 11.5152 18.6278C12.813 18.6278 14.0108 18.3182 15.1093 17.6994C16.2074 17.0801 17.0753 16.2393 17.7147 15.176C18.3536 14.1128 18.6731 12.9523 18.6731 11.6946C18.6731 11.0159 18.5729 10.3621 18.3733 9.73295H20.395V19.4364H20.3949V19.4364ZM20.3949 6.06426C20.3949 6.35377 20.2951 6.59839 20.0951 6.798C19.8956 6.99777 19.6511 7.09753 19.3615 7.09753H16.7561C16.4667 7.09753 16.2219 6.99772 16.0223 6.798C15.8227 6.59839 15.723 6.35377 15.723 6.06426V3.59379C15.723 3.31425 15.8227 3.0722 16.0223 2.8675C16.2219 2.6629 16.4668 2.56047 16.7561 2.56047H19.3615C19.6511 2.56047 19.8956 2.66285 20.0951 2.8675C20.2951 3.0722 20.3949 3.31425 20.3949 3.59379V6.06426Z" fill="#CCCCCC"/>
</svg>
