<svg width="23" height="23" viewBox="0 0 23 23" fill="none" xmlns="http://www.w3.org/2000/svg">
<g clip-path="url(#clip0)">
<path d="M17.2724 1.54339C15.5105 0.515089 13.5863 0.0010376 11.5 0.0010376C9.41345 0.0010376 7.48925 0.515089 5.7274 1.54339C3.96555 2.57173 2.57046 3.96683 1.54235 5.72844C0.514052 7.49049 0 9.41469 0 11.501C0 13.827 0.633629 15.9383 1.9016 17.8348C3.16934 19.7318 4.83131 21.1342 6.88795 22.0424C6.84784 20.9743 6.91277 20.091 7.08263 19.3922L8.56497 13.1331C8.31537 12.6441 8.19067 12.0352 8.19067 11.3063C8.19067 10.4578 8.40528 9.74888 8.83451 9.18014C9.26349 8.61093 9.78775 8.3263 10.4068 8.3263C10.9057 8.3263 11.2902 8.49083 11.5598 8.82065C11.8293 9.14996 11.9643 9.56437 11.9643 10.0634C11.9643 10.373 11.9066 10.75 11.7921 11.194C11.6772 11.6383 11.5274 12.1523 11.343 12.7364C11.1583 13.3202 11.0261 13.7868 10.9461 14.1363C10.8061 14.7452 10.9211 15.2667 11.2905 15.7011C11.6596 16.1354 12.1489 16.3524 12.758 16.3524C13.8262 16.3524 14.7021 15.7586 15.386 14.5706C16.0698 13.3826 16.4117 11.9401 16.4117 10.2429C16.4117 8.93534 15.99 7.87198 15.1465 7.05344C14.3029 6.2351 13.1272 5.82558 11.6201 5.82558C9.93282 5.82558 8.56763 6.36735 7.52472 7.4501C6.48156 8.53337 5.95997 9.82878 5.95997 11.3357C5.95997 12.2342 6.21469 12.9881 6.72362 13.597C6.89327 13.7967 6.9482 14.0111 6.88839 14.2406C6.86821 14.3006 6.82838 14.4503 6.76857 14.6897C6.7088 14.9291 6.66869 15.0842 6.64876 15.1539C6.56877 15.4735 6.37922 15.5734 6.07954 15.4534C5.31081 15.1339 4.72674 14.5801 4.32766 13.7914C3.92834 13.0029 3.72878 12.0896 3.72878 11.0513C3.72878 10.3824 3.83597 9.71353 4.05058 9.04468C4.26519 8.37582 4.59938 7.72956 5.0539 7.10539C5.50791 6.48196 6.0521 5.93003 6.68621 5.45096C7.32007 4.97166 8.09127 4.58767 8.99976 4.29768C9.90804 4.00845 10.8865 3.86361 11.9347 3.86361C13.3522 3.86361 14.6251 4.1781 15.753 4.80685C16.881 5.43587 17.7421 6.2496 18.3361 7.24776C18.9299 8.24596 19.2271 9.31389 19.2271 10.4523C19.2271 11.9497 18.9674 13.2974 18.4485 14.4954C17.9293 15.6934 17.1956 16.6342 16.2472 17.318C15.2985 18.0016 14.2204 18.3436 13.0127 18.3436C12.4036 18.3436 11.8346 18.2014 11.3056 17.9168C10.7762 17.6322 10.4119 17.2953 10.2123 16.9059C9.76317 18.6726 9.49363 19.7263 9.40372 20.0653C9.21389 20.7743 8.82454 21.5926 8.23563 22.5211C9.3038 22.8405 10.3919 23.0001 11.5 23.0001C13.5863 23.0001 15.5105 22.4861 17.2724 21.458C19.0342 20.4296 20.4293 19.0346 21.4576 17.2725C22.4857 15.5106 23 13.5866 23 11.5C23 9.4135 22.4857 7.48958 21.4576 5.72749C20.4295 3.96683 19.0342 2.57173 17.2724 1.54339Z" fill="#CCCCCC"/>
</g>
<defs>
<clipPath id="clip0">
<rect width="23" height="23" fill="white"/>
</clipPath>
</defs>
</svg>
