<svg width="23" height="23" viewBox="0 0 23 23" fill="none" xmlns="http://www.w3.org/2000/svg">
<path d="M12.7176 9.26741L14.4824 10.0116L16.6414 9.26741V7.77926C16.6414 4.93975 14.3397 2.63806 11.5002 2.63806C8.66073 2.63806 6.35904 4.93975 6.35904 7.77926V15.0851C6.35904 15.7576 5.81394 16.3027 5.14143 16.3027C4.46893 16.3027 3.92383 15.7578 3.92383 15.0851V11.838H0V15.2205C0 18.06 2.30169 20.3617 5.1412 20.3617C7.9807 20.3617 10.2824 18.06 10.2824 15.2205V7.77926C10.2824 7.10676 10.8275 6.56166 11.5 6.56166C12.1725 6.56166 12.7176 7.10676 12.7176 7.77926V9.26741Z" fill="#CCCCCC"/>
<path d="M19.0764 11.9734V15.2203C19.0764 15.8925 18.5313 16.4379 17.8586 16.4379C17.1863 16.4379 16.641 15.8928 16.641 15.2203V11.9059L14.482 12.6501L12.7172 11.9059V15.2207C12.7172 18.0602 15.0191 20.3619 17.8584 20.3619C20.6976 20.3619 22.9996 18.0602 22.9996 15.2207V11.9734H19.0764Z" fill="#CCCCCC"/>
</svg>
