<svg width="23" height="23" viewBox="0 0 23 23" fill="none" xmlns="http://www.w3.org/2000/svg">
<g clip-path="url(#clip0)">
<path d="M0.479182 0C0.214682 0 0 0.214682 0 0.479182V4.3125C0 4.577 0.214682 4.79168 0.479182 4.79168C10.2551 4.79168 18.2084 12.7449 18.2084 22.5209C18.2084 22.7854 18.423 23 18.6875 23H22.5209C22.7854 23 23 22.7854 23 22.5209C23 10.1028 12.8973 0 0.479182 0Z" fill="#CCCCCC"/>
<path d="M0.479182 7.66669C0.214682 7.66669 0 7.88132 0 8.14582V11.9791C0 12.2436 0.214682 12.4583 0.479182 12.4583C6.02793 12.4583 10.5417 16.9721 10.5417 22.5208C10.5417 22.7853 10.7564 23 11.0209 23H14.8542C15.1187 23 15.3334 22.7853 15.3334 22.5208C15.3333 14.3299 8.67006 7.66669 0.479182 7.66669Z" fill="#CCCCCC"/>
<path d="M3.35418 23C5.20665 23 6.70836 21.4983 6.70836 19.6458C6.70836 17.7933 5.20665 16.2916 3.35418 16.2916C1.50172 16.2916 0 17.7933 0 19.6458C0 21.4983 1.50172 23 3.35418 23Z" fill="#CCCCCC"/>
</g>
<defs>
<clipPath id="clip0">
<rect width="23" height="23" fill="white"/>
</clipPath>
</defs>
</svg>
